<svg width="418" height="362" viewBox="0 0 418 362" fill="none" xmlns="http://www.w3.org/2000/svg">
<path d="M389.262 48.6619H305.151C302.072 33.7025 289.587 22.5056 274.38 21.0681C259.173 19.6309 244.812 28.2896 238.983 42.4067L121.152 1.57562C114.181 -0.880195 106.516 -0.45154 99.8595 2.76573C93.2034 5.98553 88.1074 11.7268 85.7018 18.7185L1.55202 261.447C-0.891212 268.446 -0.434801 276.131 2.8152 282.795C6.06526 289.456 11.8414 294.547 18.8609 296.932L125.118 333.412V333.661C125.118 349.019 137.566 361.467 152.923 361.467H305.848C306.758 361.462 307.661 361.28 308.503 360.932C309.348 360.584 310.114 360.075 310.762 359.43L415.031 255.16C415.674 254.515 416.186 253.746 416.531 252.901C416.882 252.059 417.063 251.159 417.068 250.246V76.4668C417.068 61.1117 404.618 48.6613 389.263 48.6613L389.262 48.6619ZM271.089 34.7617C282.607 34.7617 291.944 44.0985 291.944 55.6136C291.944 67.1314 282.607 76.4681 271.089 76.4681C259.572 76.4681 250.238 67.1314 250.238 55.6136C250.238 44.0985 259.572 34.7617 271.089 34.7617V34.7617ZM23.3263 283.764C19.8165 282.572 16.927 280.025 15.3031 276.689C13.6793 273.356 13.4549 269.511 14.6803 266.011L98.8753 23.2569C100.07 19.7648 102.614 16.8955 105.94 15.2892C109.263 13.6831 113.093 13.4739 116.573 14.7068L214.561 48.6617H152.919C137.561 48.6617 125.114 61.1122 125.114 76.4672V318.718L23.3263 283.764ZM139.014 333.66V76.4661C139.014 68.7883 145.236 62.5634 152.916 62.5634H237.021C240.311 78.7634 254.554 90.4044 271.082 90.4044C287.612 90.4044 301.856 78.7634 305.144 62.5634H389.255C396.933 62.5634 403.158 68.7886 403.158 76.4661V243.294H326.695C311.338 243.294 298.89 255.744 298.89 271.1V347.562H152.917C145.237 347.562 139.014 341.339 139.014 333.659L139.014 333.66ZM393.328 257.197L312.793 337.733V271.101C312.793 263.423 319.016 257.198 326.696 257.198L393.328 257.197Z" fill="#232637"/>
<path d="M173.772 125.129H222.432C226.269 125.129 229.384 122.015 229.384 118.177C229.384 114.337 226.27 111.225 222.432 111.225H173.772C169.934 111.225 166.82 114.337 166.82 118.177C166.82 122.015 169.934 125.129 173.772 125.129Z" fill="#232637"/>
<path d="M173.772 159.881H347.552C351.392 159.881 354.503 156.769 354.503 152.929C354.503 149.092 351.392 145.977 347.552 145.977H173.772C169.934 145.977 166.82 149.091 166.82 152.929C166.82 156.769 169.934 159.881 173.772 159.881Z" fill="#232637"/>
<path d="M173.772 194.639H347.552C351.392 194.639 354.503 191.528 354.503 187.687C354.503 183.847 351.392 180.736 347.552 180.736H173.772C169.934 180.736 166.82 183.847 166.82 187.687C166.82 191.528 169.934 194.639 173.772 194.639Z" fill="#232637"/>
<path d="M173.772 229.391H347.552C351.392 229.391 354.503 226.28 354.503 222.442C354.503 218.602 351.392 215.49 347.552 215.49H173.772C169.934 215.49 166.82 218.601 166.82 222.442C166.82 226.279 169.934 229.391 173.772 229.391Z" fill="#232637"/>
<path d="M201.579 278.053H173.773C169.935 278.053 166.821 281.165 166.821 285.005C166.821 288.843 169.935 291.957 173.773 291.957H201.579C205.419 291.957 208.53 288.843 208.53 285.005C208.53 281.165 205.419 278.053 201.579 278.053Z" fill="#232637"/>
</svg>
