<svg width="473" height="348" viewBox="0 0 473 348" fill="none" xmlns="http://www.w3.org/2000/svg">
<ellipse cx="321.421" cy="151.579" rx="151.579" ry="151.579" fill="url(#paint0_linear_118_3)"/>
<mask id="path-2-outside-1_118_3" maskUnits="userSpaceOnUse" x="-3" y="102" width="357" height="196" fill="black">
<rect fill="white" x="-3" y="102" width="357" height="196"/>
<path d="M117.12 154.08C110.4 150.4 103.52 147.36 96.48 144.96C89.6 142.56 83.12 141.36 77.04 141.36C69.52 141.36 63.6 142.88 59.28 145.92C54.96 148.96 52.8 153.52 52.8 159.6C52.8 163.76 54.4 167.52 57.6 170.88C60.96 174.08 65.2 176.96 70.32 179.52C75.6 182.08 81.04 184.4 86.64 186.48C91.76 188.4 96.8 190.72 101.76 193.44C106.88 196 111.44 199.28 115.44 203.28C119.44 207.12 122.64 212 125.04 217.92C127.44 223.68 128.64 230.8 128.64 239.28C128.64 248.24 126.32 256.56 121.68 264.24C117.04 271.92 110.24 278.16 101.28 282.96C92.32 287.6 81.28 289.92 68.16 289.92C61.44 289.92 54.56 289.28 47.52 288C40.64 286.56 33.84 284.48 27.12 281.76C20.4 278.88 13.92 275.28 7.68 270.96L23.04 243.84C27.2 246.88 31.68 249.6 36.48 252C41.44 254.24 46.4 256 51.36 257.28C56.32 258.56 60.88 259.2 65.04 259.2C69.2 259.2 73.36 258.64 77.52 257.52C81.84 256.24 85.36 254.16 88.08 251.28C90.96 248.4 92.4 244.4 92.4 239.28C92.4 235.76 91.2 232.56 88.8 229.68C86.56 226.8 83.44 224.16 79.44 221.76C75.6 219.36 71.36 217.28 66.72 215.52C61.28 213.44 55.68 211.04 49.92 208.32C44.16 205.6 38.72 202.32 33.6 198.48C28.64 194.48 24.56 189.6 21.36 183.84C18.32 177.92 16.8 170.72 16.8 162.24C16.8 152 19.04 143.12 23.52 135.6C28.16 128.08 34.64 122.16 42.96 117.84C51.28 113.36 60.88 110.88 71.76 110.4C86 110.4 97.52 112.08 106.32 115.44C115.28 118.8 123.28 122.8 130.32 127.44L117.12 154.08ZM153.122 111.36H187.922V288H153.122V111.36ZM277.433 111.36C291.993 111.36 304.313 113.84 314.393 118.8C324.473 123.6 332.153 130.48 337.433 139.44C342.713 148.24 345.353 158.72 345.353 170.88C345.353 178.08 344.233 185.36 341.993 192.72C339.913 199.92 336.473 206.48 331.673 212.4C327.033 218.32 320.713 223.12 312.713 226.8C304.873 230.32 295.193 232.08 283.673 232.08H258.713V288H223.913V111.36H277.433ZM283.433 198.24C288.713 198.24 293.113 197.36 296.633 195.6C300.153 193.68 302.873 191.36 304.793 188.64C306.873 185.76 308.313 182.8 309.113 179.76C310.073 176.72 310.553 174.08 310.553 171.84C310.553 170.08 310.233 167.76 309.593 164.88C309.113 161.84 307.993 158.8 306.233 155.76C304.473 152.72 301.753 150.16 298.073 148.08C294.553 146 289.753 144.96 283.673 144.96H258.713V198.24H283.433Z"/>
</mask>
<path d="M117.12 154.08C110.4 150.4 103.52 147.36 96.48 144.96C89.6 142.56 83.12 141.36 77.04 141.36C69.52 141.36 63.6 142.88 59.28 145.92C54.96 148.96 52.8 153.52 52.8 159.6C52.8 163.76 54.4 167.52 57.6 170.88C60.96 174.08 65.2 176.96 70.32 179.52C75.6 182.08 81.04 184.4 86.64 186.48C91.76 188.4 96.8 190.72 101.76 193.44C106.88 196 111.44 199.28 115.44 203.28C119.44 207.12 122.64 212 125.04 217.92C127.44 223.68 128.64 230.8 128.64 239.28C128.64 248.24 126.32 256.56 121.68 264.24C117.04 271.92 110.24 278.16 101.28 282.96C92.32 287.6 81.28 289.92 68.16 289.92C61.44 289.92 54.56 289.28 47.52 288C40.64 286.56 33.84 284.48 27.12 281.76C20.4 278.88 13.92 275.28 7.68 270.96L23.04 243.84C27.2 246.88 31.68 249.6 36.48 252C41.44 254.24 46.4 256 51.36 257.28C56.32 258.56 60.88 259.2 65.04 259.2C69.2 259.2 73.36 258.64 77.52 257.52C81.84 256.24 85.36 254.16 88.08 251.28C90.96 248.4 92.4 244.4 92.4 239.28C92.4 235.76 91.2 232.56 88.8 229.68C86.56 226.8 83.44 224.16 79.44 221.76C75.6 219.36 71.36 217.28 66.72 215.52C61.28 213.44 55.68 211.04 49.92 208.32C44.16 205.6 38.72 202.32 33.6 198.48C28.64 194.48 24.56 189.6 21.36 183.84C18.32 177.92 16.8 170.72 16.8 162.24C16.8 152 19.04 143.12 23.52 135.6C28.16 128.08 34.64 122.16 42.96 117.84C51.28 113.36 60.88 110.88 71.76 110.4C86 110.4 97.52 112.08 106.32 115.44C115.28 118.8 123.28 122.8 130.32 127.44L117.12 154.08ZM153.122 111.36H187.922V288H153.122V111.36ZM277.433 111.36C291.993 111.36 304.313 113.84 314.393 118.8C324.473 123.6 332.153 130.48 337.433 139.44C342.713 148.24 345.353 158.72 345.353 170.88C345.353 178.08 344.233 185.36 341.993 192.72C339.913 199.92 336.473 206.48 331.673 212.4C327.033 218.32 320.713 223.12 312.713 226.8C304.873 230.32 295.193 232.08 283.673 232.08H258.713V288H223.913V111.36H277.433ZM283.433 198.24C288.713 198.24 293.113 197.36 296.633 195.6C300.153 193.68 302.873 191.36 304.793 188.64C306.873 185.76 308.313 182.8 309.113 179.76C310.073 176.72 310.553 174.08 310.553 171.84C310.553 170.08 310.233 167.76 309.593 164.88C309.113 161.84 307.993 158.8 306.233 155.76C304.473 152.72 301.753 150.16 298.073 148.08C294.553 146 289.753 144.96 283.673 144.96H258.713V198.24H283.433Z" fill="black"/>
<path d="M117.12 154.08L113.277 161.097L120.588 165.1L124.288 157.632L117.12 154.08ZM96.48 144.96L93.845 152.514L93.8718 152.523L93.8986 152.532L96.48 144.96ZM59.28 145.92L54.6761 139.378L54.6761 139.378L59.28 145.92ZM57.6 170.88L51.8069 176.397L51.9415 176.539L52.0828 176.673L57.6 170.88ZM70.32 179.52L66.7423 186.675L66.7859 186.697L66.8298 186.719L70.32 179.52ZM86.64 186.48L89.449 178.989L89.4373 178.985L89.4255 178.981L86.64 186.48ZM101.76 193.44L97.9133 200.454L98.0465 200.528L98.1823 200.595L101.76 193.44ZM115.44 203.28L109.783 208.937L109.841 208.995L109.9 209.051L115.44 203.28ZM125.04 217.92L117.626 220.926L117.641 220.961L117.655 220.997L125.04 217.92ZM121.68 264.24L128.527 268.377L128.527 268.377L121.68 264.24ZM101.28 282.96L104.959 290.064L105.008 290.038L105.058 290.012L101.28 282.96ZM47.52 288L45.8811 295.83L45.9847 295.852L46.0889 295.871L47.52 288ZM27.12 281.76L23.9686 289.113L24.0432 289.145L24.1185 289.176L27.12 281.76ZM7.68 270.96L0.718942 267.017L-2.88304 273.377L3.12632 277.538L7.68 270.96ZM23.04 243.84L27.7601 237.381L20.5065 232.08L16.0789 239.897L23.04 243.84ZM36.48 252L32.9023 259.155L33.0435 259.226L33.1873 259.291L36.48 252ZM51.36 257.28L53.359 249.534L53.359 249.534L51.36 257.28ZM77.52 257.52L79.5998 265.245L79.6966 265.219L79.7927 265.19L77.52 257.52ZM88.08 251.28L82.4232 245.623L82.3424 245.704L82.2639 245.787L88.08 251.28ZM88.8 229.68L82.4852 234.592L82.5679 234.698L82.6542 234.801L88.8 229.68ZM79.44 221.76L75.2 228.544L75.2617 228.583L75.324 228.62L79.44 221.76ZM66.72 215.52L63.8629 222.992L63.8728 222.996L63.8828 223L66.72 215.52ZM49.92 208.32L46.504 215.554L46.504 215.554L49.92 208.32ZM33.6 198.48L28.578 204.707L28.6875 204.796L28.8 204.88L33.6 198.48ZM21.36 183.84L14.2435 187.494L14.3032 187.611L14.3667 187.725L21.36 183.84ZM23.52 135.6L16.7117 131.399L16.679 131.452L16.6472 131.506L23.52 135.6ZM42.96 117.84L46.6465 124.94L46.6999 124.912L46.7528 124.884L42.96 117.84ZM71.76 110.4V102.4H71.5836L71.4074 102.408L71.76 110.4ZM106.32 115.44L103.466 122.914L103.489 122.922L103.511 122.931L106.32 115.44ZM130.32 127.44L137.488 130.992L140.629 124.653L134.723 120.76L130.32 127.44ZM120.963 147.063C113.851 143.169 106.55 139.941 99.0614 137.388L93.8986 152.532C100.49 154.779 106.949 157.631 113.277 161.097L120.963 147.063ZM99.115 137.406C91.5511 134.768 84.1751 133.36 77.04 133.36V149.36C82.0649 149.36 87.6489 150.352 93.845 152.514L99.115 137.406ZM77.04 133.36C68.544 133.36 60.8053 135.064 54.6761 139.378L63.8839 152.462C66.3947 150.696 70.496 149.36 77.04 149.36V133.36ZM54.6761 139.378C47.8816 144.159 44.8 151.369 44.8 159.6H60.8C60.8 155.671 62.0384 153.761 63.8839 152.462L54.6761 139.378ZM44.8 159.6C44.8 166.058 47.3677 171.736 51.8069 176.397L63.3931 165.363C61.4323 163.304 60.8 161.462 60.8 159.6H44.8ZM52.0828 176.673C56.134 180.531 61.0708 183.84 66.7423 186.675L73.8977 172.365C69.3292 170.08 65.786 167.629 63.1172 165.087L52.0828 176.673ZM66.8298 186.719C72.3439 189.392 78.0193 191.812 83.8545 193.979L89.4255 178.981C84.0608 176.988 78.8561 174.768 73.8102 172.321L66.8298 186.719ZM83.831 193.971C88.5822 195.752 93.276 197.911 97.9133 200.454L105.607 186.425C100.324 183.529 94.9378 181.048 89.449 178.989L83.831 193.971ZM98.1823 200.595C102.543 202.776 106.398 205.552 109.783 208.937L121.097 197.623C116.482 193.008 111.217 189.224 105.338 186.285L98.1823 200.595ZM109.9 209.051C112.973 212.001 115.585 215.891 117.626 220.926L132.454 214.914C129.695 208.109 125.907 202.238 120.98 197.509L109.9 209.051ZM117.655 220.997C119.532 225.5 120.64 231.5 120.64 239.28H136.64C136.64 230.1 135.348 221.86 132.425 214.843L117.655 220.997ZM120.64 239.28C120.64 246.78 118.72 253.669 114.833 260.103L128.527 268.377C133.92 259.451 136.64 249.7 136.64 239.28H120.64ZM114.833 260.103C111.03 266.397 105.368 271.695 97.5022 275.908L105.058 290.012C115.112 284.625 123.05 277.443 128.527 268.377L114.833 260.103ZM97.6012 275.856C90.0677 279.757 80.3713 281.92 68.16 281.92V297.92C82.1887 297.92 94.5723 295.443 104.959 290.064L97.6012 275.856ZM68.16 281.92C61.9498 281.92 55.5492 281.329 48.9511 280.129L46.0889 295.871C53.5708 297.231 60.9302 297.92 68.16 297.92V281.92ZM49.1589 280.17C42.7589 278.83 36.4144 276.892 30.1215 274.344L24.1185 289.176C31.2656 292.068 38.5211 294.29 45.8811 295.83L49.1589 280.17ZM30.2714 274.407C24.0619 271.746 18.0501 268.409 12.2337 264.382L3.12632 277.538C9.7899 282.151 16.7381 286.014 23.9686 289.113L30.2714 274.407ZM14.6411 274.903L30.0011 247.783L16.0789 239.897L0.718942 267.017L14.6411 274.903ZM18.3199 250.299C22.8552 253.613 27.7192 256.564 32.9023 259.155L40.0577 244.845C35.6408 242.636 31.5448 240.147 27.7601 237.381L18.3199 250.299ZM33.1873 259.291C38.5389 261.708 43.9309 263.625 49.361 265.026L53.359 249.534C48.8691 248.375 44.3411 246.772 39.7727 244.709L33.1873 259.291ZM49.361 265.026C54.8298 266.438 60.0714 267.2 65.04 267.2V251.2C61.6886 251.2 57.8102 250.682 53.359 249.534L49.361 265.026ZM65.04 267.2C69.927 267.2 74.7859 266.541 79.5998 265.245L75.4402 249.795C71.9342 250.739 68.473 251.2 65.04 251.2V267.2ZM79.7927 265.19C85.276 263.566 90.0806 260.813 93.8961 256.773L82.2639 245.787C80.6394 247.507 78.404 248.914 75.2473 249.85L79.7927 265.19ZM93.7369 256.937C98.48 252.194 100.4 245.947 100.4 239.28H84.4C84.4 242.853 83.44 244.606 82.4232 245.623L93.7369 256.937ZM100.4 239.28C100.4 233.761 98.4598 228.775 94.9458 224.559L82.6542 234.801C83.9402 236.345 84.4 237.759 84.4 239.28H100.4ZM95.1148 224.768C92.1257 220.925 88.1775 217.673 83.556 214.9L75.324 228.62C78.7025 230.647 80.9944 232.675 82.4852 234.592L95.1148 224.768ZM83.68 214.976C79.3563 212.274 74.6403 209.968 69.5572 208.04L63.8828 223C68.0797 224.592 71.8437 226.446 75.2 228.544L83.68 214.976ZM69.5771 208.048C64.343 206.046 58.9296 203.727 53.336 201.086L46.504 215.554C52.4304 218.353 58.2171 220.834 63.8629 222.992L69.5771 208.048ZM53.336 201.086C48.0666 198.598 43.0901 195.598 38.4 192.08L28.8 204.88C34.3499 209.042 40.2534 212.602 46.504 215.554L53.336 201.086ZM38.622 192.253C34.4912 188.921 31.0705 184.846 28.3533 179.955L14.3667 187.725C18.0495 194.354 22.7888 200.039 28.578 204.707L38.622 192.253ZM28.4765 180.186C26.1544 175.664 24.8 169.788 24.8 162.24H8.8C8.8 171.652 10.4856 180.176 14.2435 187.494L28.4765 180.186ZM24.8 162.24C24.8 153.194 26.7678 145.779 30.3928 139.694L16.6472 131.506C11.3122 140.461 8.8 150.806 8.8 162.24H24.8ZM30.3283 139.801C34.1621 133.587 39.5286 128.636 46.6465 124.94L39.2735 110.74C29.7514 115.684 22.1579 122.573 16.7117 131.399L30.3283 139.801ZM46.7528 124.884C53.8615 121.056 62.2527 118.827 72.1126 118.392L71.4074 102.408C59.5073 102.933 48.6985 105.664 39.1672 110.796L46.7528 124.884ZM71.76 118.4C85.4734 118.4 95.9193 120.032 103.466 122.914L109.174 107.966C99.1207 104.128 86.5266 102.4 71.76 102.4V118.4ZM103.511 122.931C111.985 126.108 119.438 129.849 125.918 134.12L134.723 120.76C127.122 115.751 118.575 111.492 109.129 107.949L103.511 122.931ZM123.152 123.888L109.952 150.528L124.288 157.632L137.488 130.992L123.152 123.888ZM153.122 111.36V103.36H145.122V111.36H153.122ZM187.922 111.36H195.922V103.36H187.922V111.36ZM187.922 288V296H195.922V288H187.922ZM153.122 288H145.122V296H153.122V288ZM153.122 119.36H187.922V103.36H153.122V119.36ZM179.922 111.36V288H195.922V111.36H179.922ZM187.922 280H153.122V296H187.922V280ZM161.122 288V111.36H145.122V288H161.122ZM314.393 118.8L310.86 125.978L310.907 126.001L310.953 126.023L314.393 118.8ZM337.433 139.44L330.54 143.502L330.556 143.529L330.573 143.556L337.433 139.44ZM341.993 192.72L334.339 190.391L334.323 190.445L334.307 190.5L341.993 192.72ZM331.673 212.4L325.458 207.362L325.417 207.413L325.376 207.465L331.673 212.4ZM312.713 226.8L315.989 234.098L316.023 234.083L316.056 234.068L312.713 226.8ZM258.713 232.08V224.08H250.713V232.08H258.713ZM258.713 288V296H266.713V288H258.713ZM223.913 288H215.913V296H223.913V288ZM223.913 111.36V103.36H215.913V111.36H223.913ZM296.633 195.6L300.21 202.755L300.338 202.692L300.463 202.623L296.633 195.6ZM304.793 188.64L298.307 183.956L298.282 183.991L298.257 184.027L304.793 188.64ZM309.113 179.76L301.484 177.351L301.425 177.536L301.376 177.724L309.113 179.76ZM309.593 164.88L301.69 166.128L301.729 166.373L301.783 166.615L309.593 164.88ZM306.233 155.76L299.309 159.768L299.309 159.768L306.233 155.76ZM298.073 148.08L294.003 154.967L294.069 155.007L294.136 155.045L298.073 148.08ZM258.713 144.96V136.96H250.713V144.96H258.713ZM258.713 198.24H250.713V206.24H258.713V198.24ZM277.433 119.36C291.117 119.36 302.155 121.694 310.86 125.978L317.925 111.622C306.47 105.986 292.868 103.36 277.433 103.36V119.36ZM310.953 126.023C319.704 130.19 326.131 136.018 330.54 143.502L344.325 135.378C338.175 124.942 329.241 117.01 317.832 111.577L310.953 126.023ZM330.573 143.556C334.979 150.9 337.353 159.9 337.353 170.88H353.353C353.353 157.54 350.446 145.58 344.292 135.324L330.573 143.556ZM337.353 170.88C337.353 177.238 336.365 183.734 334.339 190.391L349.646 195.049C352.1 186.986 353.353 178.922 353.353 170.88H337.353ZM334.307 190.5C332.529 196.654 329.596 202.259 325.458 207.362L337.887 217.438C343.349 210.701 347.296 203.186 349.678 194.94L334.307 190.5ZM325.376 207.465C321.645 212.226 316.411 216.293 309.369 219.532L316.056 234.068C325.014 229.947 332.42 224.414 337.969 217.335L325.376 207.465ZM309.436 219.502C302.914 222.43 294.427 224.08 283.673 224.08V240.08C295.958 240.08 306.831 238.21 315.989 234.098L309.436 219.502ZM283.673 224.08H258.713V240.08H283.673V224.08ZM250.713 232.08V288H266.713V232.08H250.713ZM258.713 280H223.913V296H258.713V280ZM231.913 288V111.36H215.913V288H231.913ZM223.913 119.36H277.433V103.36H223.913V119.36ZM283.433 206.24C289.55 206.24 295.267 205.227 300.21 202.755L293.055 188.445C290.958 189.493 287.875 190.24 283.433 190.24V206.24ZM300.463 202.623C304.841 200.236 308.573 197.157 311.328 193.253L298.257 184.027C297.172 185.563 295.464 187.124 292.802 188.577L300.463 202.623ZM311.278 193.324C313.86 189.749 315.768 185.904 316.849 181.796L301.376 177.724C300.857 179.696 299.885 181.771 298.307 183.956L311.278 193.324ZM316.741 182.169C317.852 178.651 318.553 175.162 318.553 171.84H302.553C302.553 172.998 302.293 174.789 301.484 177.351L316.741 182.169ZM318.553 171.84C318.553 169.236 318.096 166.267 317.402 163.145L301.783 166.615C302.369 169.253 302.553 170.924 302.553 171.84H318.553ZM317.495 163.632C316.841 159.492 315.34 155.525 313.156 151.752L299.309 159.768C300.645 162.075 301.384 164.188 301.69 166.128L317.495 163.632ZM313.156 151.752C310.549 147.248 306.677 143.754 302.009 141.115L294.136 155.045C296.828 156.566 298.396 158.191 299.309 159.768L313.156 151.752ZM302.142 141.193C296.931 138.113 290.535 136.96 283.673 136.96V152.96C288.97 152.96 292.174 153.887 294.003 154.967L302.142 141.193ZM283.673 136.96H258.713V152.96H283.673V136.96ZM250.713 144.96V198.24H266.713V144.96H250.713ZM258.713 206.24H283.433V190.24H258.713V206.24Z" fill="white" mask="url(#path-2-outside-1_118_3)"/>
<defs>
<linearGradient id="paint0_linear_118_3" x1="321.421" y1="303.158" x2="321.421" y2="-1.35522e-06" gradientUnits="userSpaceOnUse">
<stop stop-color="#D9D9D9"/>
<stop offset="0.171812" stop-color="#BBCCDC"/>
<stop offset="0.992047" stop-color="#2C8FEA"/>
</linearGradient>
</defs>
</svg>
