<svg width="794" height="430" viewBox="0 0 794 430" fill="none" xmlns="http://www.w3.org/2000/svg">
<ellipse cx="481.421" cy="151.579" rx="151.579" ry="151.579" fill="url(#paint0_linear_107_3)"/>
<mask id="path-2-outside-1_107_3" maskUnits="userSpaceOnUse" x="157" y="102" width="357" height="196" fill="black">
<rect fill="white" x="157" y="102" width="357" height="196"/>
<path d="M277.12 154.08C270.4 150.4 263.52 147.36 256.48 144.96C249.6 142.56 243.12 141.36 237.04 141.36C229.52 141.36 223.6 142.88 219.28 145.92C214.96 148.96 212.8 153.52 212.8 159.6C212.8 163.76 214.4 167.52 217.6 170.88C220.96 174.08 225.2 176.96 230.32 179.52C235.6 182.08 241.04 184.4 246.64 186.48C251.76 188.4 256.8 190.72 261.76 193.44C266.88 196 271.44 199.28 275.44 203.28C279.44 207.12 282.64 212 285.04 217.92C287.44 223.68 288.64 230.8 288.64 239.28C288.64 248.24 286.32 256.56 281.68 264.24C277.04 271.92 270.24 278.16 261.28 282.96C252.32 287.6 241.28 289.92 228.16 289.92C221.44 289.92 214.56 289.28 207.52 288C200.64 286.56 193.84 284.48 187.12 281.76C180.4 278.88 173.92 275.28 167.68 270.96L183.04 243.84C187.2 246.88 191.68 249.6 196.48 252C201.44 254.24 206.4 256 211.36 257.28C216.32 258.56 220.88 259.2 225.04 259.2C229.2 259.2 233.36 258.64 237.52 257.52C241.84 256.24 245.36 254.16 248.08 251.28C250.96 248.4 252.4 244.4 252.4 239.28C252.4 235.76 251.2 232.56 248.8 229.68C246.56 226.8 243.44 224.16 239.44 221.76C235.6 219.36 231.36 217.28 226.72 215.52C221.28 213.44 215.68 211.04 209.92 208.32C204.16 205.6 198.72 202.32 193.6 198.48C188.64 194.48 184.56 189.6 181.36 183.84C178.32 177.92 176.8 170.72 176.8 162.24C176.8 152 179.04 143.12 183.52 135.6C188.16 128.08 194.64 122.16 202.96 117.84C211.28 113.36 220.88 110.88 231.76 110.4C246 110.4 257.52 112.08 266.32 115.44C275.28 118.8 283.28 122.8 290.32 127.44L277.12 154.08ZM313.122 111.36H347.922V288H313.122V111.36ZM437.433 111.36C451.993 111.36 464.313 113.84 474.393 118.8C484.473 123.6 492.153 130.48 497.433 139.44C502.713 148.24 505.353 158.72 505.353 170.88C505.353 178.08 504.233 185.36 501.993 192.72C499.913 199.92 496.473 206.48 491.673 212.4C487.033 218.32 480.713 223.12 472.713 226.8C464.873 230.32 455.193 232.08 443.673 232.08H418.713V288H383.913V111.36H437.433ZM443.433 198.24C448.713 198.24 453.113 197.36 456.633 195.6C460.153 193.68 462.873 191.36 464.793 188.64C466.873 185.76 468.313 182.8 469.113 179.76C470.073 176.72 470.553 174.08 470.553 171.84C470.553 170.08 470.233 167.76 469.593 164.88C469.113 161.84 467.993 158.8 466.233 155.76C464.473 152.72 461.753 150.16 458.073 148.08C454.553 146 449.753 144.96 443.673 144.96H418.713V198.24H443.433Z"/>
</mask>
<path d="M277.12 154.08C270.4 150.4 263.52 147.36 256.48 144.96C249.6 142.56 243.12 141.36 237.04 141.36C229.52 141.36 223.6 142.88 219.28 145.92C214.96 148.96 212.8 153.52 212.8 159.6C212.8 163.76 214.4 167.52 217.6 170.88C220.96 174.08 225.2 176.96 230.32 179.52C235.6 182.08 241.04 184.4 246.64 186.48C251.76 188.4 256.8 190.72 261.76 193.44C266.88 196 271.44 199.28 275.44 203.28C279.44 207.12 282.64 212 285.04 217.92C287.44 223.68 288.64 230.8 288.64 239.28C288.64 248.24 286.32 256.56 281.68 264.24C277.04 271.92 270.24 278.16 261.28 282.96C252.32 287.6 241.28 289.92 228.16 289.92C221.44 289.92 214.56 289.28 207.52 288C200.64 286.56 193.84 284.48 187.12 281.76C180.4 278.88 173.92 275.28 167.68 270.96L183.04 243.84C187.2 246.88 191.68 249.6 196.48 252C201.44 254.24 206.4 256 211.36 257.28C216.32 258.56 220.88 259.2 225.04 259.2C229.2 259.2 233.36 258.64 237.52 257.52C241.84 256.24 245.36 254.16 248.08 251.28C250.96 248.4 252.4 244.4 252.4 239.28C252.4 235.76 251.2 232.56 248.8 229.68C246.56 226.8 243.44 224.16 239.44 221.76C235.6 219.36 231.36 217.28 226.72 215.52C221.28 213.44 215.68 211.04 209.92 208.32C204.16 205.6 198.72 202.32 193.6 198.48C188.64 194.48 184.56 189.6 181.36 183.84C178.32 177.92 176.8 170.72 176.8 162.24C176.8 152 179.04 143.12 183.52 135.6C188.16 128.08 194.64 122.16 202.96 117.84C211.28 113.36 220.88 110.88 231.76 110.4C246 110.4 257.52 112.08 266.32 115.44C275.28 118.8 283.28 122.8 290.32 127.44L277.12 154.08ZM313.122 111.36H347.922V288H313.122V111.36ZM437.433 111.36C451.993 111.36 464.313 113.84 474.393 118.8C484.473 123.6 492.153 130.48 497.433 139.44C502.713 148.24 505.353 158.72 505.353 170.88C505.353 178.08 504.233 185.36 501.993 192.72C499.913 199.92 496.473 206.48 491.673 212.4C487.033 218.32 480.713 223.12 472.713 226.8C464.873 230.32 455.193 232.08 443.673 232.08H418.713V288H383.913V111.36H437.433ZM443.433 198.24C448.713 198.24 453.113 197.36 456.633 195.6C460.153 193.68 462.873 191.36 464.793 188.64C466.873 185.76 468.313 182.8 469.113 179.76C470.073 176.72 470.553 174.08 470.553 171.84C470.553 170.08 470.233 167.76 469.593 164.88C469.113 161.84 467.993 158.8 466.233 155.76C464.473 152.72 461.753 150.16 458.073 148.08C454.553 146 449.753 144.96 443.673 144.96H418.713V198.24H443.433Z" fill="black"/>
<path d="M277.12 154.08L273.277 161.097L280.588 165.1L284.288 157.632L277.12 154.08ZM256.48 144.96L253.845 152.514L253.872 152.523L253.899 152.532L256.48 144.96ZM219.28 145.92L214.676 139.378V139.378L219.28 145.92ZM217.6 170.88L211.807 176.397L211.941 176.539L212.083 176.673L217.6 170.88ZM230.32 179.52L226.742 186.675L226.786 186.697L226.83 186.719L230.32 179.52ZM246.64 186.48L249.449 178.989L249.437 178.985L249.425 178.981L246.64 186.48ZM261.76 193.44L257.913 200.454L258.046 200.528L258.182 200.595L261.76 193.44ZM275.44 203.28L269.783 208.937L269.841 208.995L269.9 209.051L275.44 203.28ZM285.04 217.92L277.626 220.926L277.641 220.961L277.655 220.997L285.04 217.92ZM281.68 264.24L288.527 268.377L281.68 264.24ZM261.28 282.96L264.959 290.064L265.008 290.038L265.058 290.012L261.28 282.96ZM207.52 288L205.881 295.83L205.985 295.852L206.089 295.871L207.52 288ZM187.12 281.76L183.969 289.113L184.043 289.145L184.118 289.176L187.12 281.76ZM167.68 270.96L160.719 267.017L157.117 273.377L163.126 277.538L167.68 270.96ZM183.04 243.84L187.76 237.381L180.506 232.08L176.079 239.897L183.04 243.84ZM196.48 252L192.902 259.155L193.043 259.226L193.187 259.291L196.48 252ZM211.36 257.28L213.359 249.534L211.36 257.28ZM237.52 257.52L239.6 265.245L239.697 265.219L239.793 265.19L237.52 257.52ZM248.08 251.28L242.423 245.623L242.342 245.704L242.264 245.787L248.08 251.28ZM248.8 229.68L242.485 234.592L242.568 234.698L242.654 234.801L248.8 229.68ZM239.44 221.76L235.2 228.544L235.262 228.583L235.324 228.62L239.44 221.76ZM226.72 215.52L223.863 222.992L223.873 222.996L223.883 223L226.72 215.52ZM209.92 208.32L206.504 215.554L209.92 208.32ZM193.6 198.48L188.578 204.707L188.687 204.796L188.8 204.88L193.6 198.48ZM181.36 183.84L174.243 187.494L174.303 187.611L174.367 187.725L181.36 183.84ZM183.52 135.6L176.712 131.399L176.679 131.452L176.647 131.506L183.52 135.6ZM202.96 117.84L206.647 124.94L206.7 124.912L206.753 124.884L202.96 117.84ZM231.76 110.4V102.4H231.584L231.407 102.408L231.76 110.4ZM266.32 115.44L263.466 122.914L263.489 122.922L263.511 122.931L266.32 115.44ZM290.32 127.44L297.488 130.992L300.629 124.653L294.723 120.76L290.32 127.44ZM280.963 147.063C273.851 143.169 266.55 139.941 259.061 137.388L253.899 152.532C260.49 154.779 266.949 157.631 273.277 161.097L280.963 147.063ZM259.115 137.406C251.551 134.768 244.175 133.36 237.04 133.36V149.36C242.065 149.36 247.649 150.352 253.845 152.514L259.115 137.406ZM237.04 133.36C228.544 133.36 220.805 135.064 214.676 139.378L223.884 152.462C226.395 150.696 230.496 149.36 237.04 149.36V133.36ZM214.676 139.378C207.882 144.159 204.8 151.369 204.8 159.6H220.8C220.8 155.671 222.038 153.761 223.884 152.462L214.676 139.378ZM204.8 159.6C204.8 166.058 207.368 171.736 211.807 176.397L223.393 165.363C221.432 163.304 220.8 161.462 220.8 159.6H204.8ZM212.083 176.673C216.134 180.531 221.071 183.84 226.742 186.675L233.898 172.365C229.329 170.08 225.786 167.629 223.117 165.087L212.083 176.673ZM226.83 186.719C232.344 189.392 238.019 191.812 243.855 193.979L249.425 178.981C244.061 176.988 238.856 174.768 233.81 172.321L226.83 186.719ZM243.831 193.971C248.582 195.752 253.276 197.911 257.913 200.454L265.607 186.425C260.324 183.529 254.938 181.048 249.449 178.989L243.831 193.971ZM258.182 200.595C262.543 202.776 266.398 205.552 269.783 208.937L281.097 197.623C276.482 193.008 271.217 189.224 265.338 186.285L258.182 200.595ZM269.9 209.051C272.973 212.001 275.585 215.891 277.626 220.926L292.454 214.914C289.695 208.109 285.907 202.238 280.98 197.509L269.9 209.051ZM277.655 220.997C279.532 225.5 280.64 231.5 280.64 239.28H296.64C296.64 230.1 295.348 221.86 292.425 214.843L277.655 220.997ZM280.64 239.28C280.64 246.78 278.72 253.669 274.833 260.103L288.527 268.377C293.92 259.451 296.64 249.7 296.64 239.28H280.64ZM274.833 260.103C271.03 266.397 265.368 271.695 257.502 275.908L265.058 290.012C275.112 284.625 283.05 277.443 288.527 268.377L274.833 260.103ZM257.601 275.856C250.068 279.757 240.371 281.92 228.16 281.92V297.92C242.189 297.92 254.572 295.443 264.959 290.064L257.601 275.856ZM228.16 281.92C221.95 281.92 215.549 281.329 208.951 280.129L206.089 295.871C213.571 297.231 220.93 297.92 228.16 297.92V281.92ZM209.159 280.17C202.759 278.83 196.414 276.892 190.122 274.344L184.118 289.176C191.266 292.068 198.521 294.29 205.881 295.83L209.159 280.17ZM190.271 274.407C184.062 271.746 178.05 268.409 172.234 264.382L163.126 277.538C169.79 282.151 176.738 286.014 183.969 289.113L190.271 274.407ZM174.641 274.903L190.001 247.783L176.079 239.897L160.719 267.017L174.641 274.903ZM178.32 250.299C182.855 253.613 187.719 256.564 192.902 259.155L200.058 244.845C195.641 242.636 191.545 240.147 187.76 237.381L178.32 250.299ZM193.187 259.291C198.539 261.708 203.931 263.625 209.361 265.026L213.359 249.534C208.869 248.375 204.341 246.772 199.773 244.709L193.187 259.291ZM209.361 265.026C214.83 266.438 220.071 267.2 225.04 267.2V251.2C221.689 251.2 217.81 250.682 213.359 249.534L209.361 265.026ZM225.04 267.2C229.927 267.2 234.786 266.541 239.6 265.245L235.44 249.795C231.934 250.739 228.473 251.2 225.04 251.2V267.2ZM239.793 265.19C245.276 263.566 250.081 260.813 253.896 256.773L242.264 245.787C240.639 247.507 238.404 248.914 235.247 249.85L239.793 265.19ZM253.737 256.937C258.48 252.194 260.4 245.947 260.4 239.28H244.4C244.4 242.853 243.44 244.606 242.423 245.623L253.737 256.937ZM260.4 239.28C260.4 233.761 258.46 228.775 254.946 224.559L242.654 234.801C243.94 236.345 244.4 237.759 244.4 239.28H260.4ZM255.115 224.768C252.126 220.925 248.178 217.673 243.556 214.9L235.324 228.62C238.702 230.647 240.994 232.675 242.485 234.592L255.115 224.768ZM243.68 214.976C239.356 212.274 234.64 209.968 229.557 208.04L223.883 223C228.08 224.592 231.844 226.446 235.2 228.544L243.68 214.976ZM229.577 208.048C224.343 206.046 218.93 203.727 213.336 201.086L206.504 215.554C212.43 218.353 218.217 220.834 223.863 222.992L229.577 208.048ZM213.336 201.086C208.067 198.598 203.09 195.598 198.4 192.08L188.8 204.88C194.35 209.042 200.253 212.602 206.504 215.554L213.336 201.086ZM198.622 192.253C194.491 188.921 191.07 184.846 188.353 179.955L174.367 187.725C178.05 194.354 182.789 200.039 188.578 204.707L198.622 192.253ZM188.477 180.186C186.154 175.664 184.8 169.788 184.8 162.24H168.8C168.8 171.652 170.486 180.176 174.243 187.494L188.477 180.186ZM184.8 162.24C184.8 153.194 186.768 145.779 190.393 139.694L176.647 131.506C171.312 140.461 168.8 150.806 168.8 162.24H184.8ZM190.328 139.801C194.162 133.587 199.529 128.636 206.647 124.94L199.273 110.74C189.751 115.684 182.158 122.573 176.712 131.399L190.328 139.801ZM206.753 124.884C213.861 121.056 222.253 118.827 232.113 118.392L231.407 102.408C219.507 102.933 208.699 105.664 199.167 110.796L206.753 124.884ZM231.76 118.4C245.473 118.4 255.919 120.032 263.466 122.914L269.174 107.966C259.121 104.128 246.527 102.4 231.76 102.4V118.4ZM263.511 122.931C271.985 126.108 279.438 129.849 285.918 134.12L294.723 120.76C287.122 115.751 278.575 111.492 269.129 107.949L263.511 122.931ZM283.152 123.888L269.952 150.528L284.288 157.632L297.488 130.992L283.152 123.888ZM313.122 111.36V103.36H305.122V111.36H313.122ZM347.922 111.36H355.922V103.36H347.922V111.36ZM347.922 288V296H355.922V288H347.922ZM313.122 288H305.122V296H313.122V288ZM313.122 119.36H347.922V103.36H313.122V119.36ZM339.922 111.36V288H355.922V111.36H339.922ZM347.922 280H313.122V296H347.922V280ZM321.122 288V111.36H305.122V288H321.122ZM474.393 118.8L470.86 125.978L470.907 126.001L470.953 126.023L474.393 118.8ZM497.432 139.44L490.54 143.502L490.556 143.529L490.573 143.556L497.432 139.44ZM501.992 192.72L494.339 190.391L494.323 190.445L494.307 190.5L501.992 192.72ZM491.673 212.4L485.458 207.362L485.417 207.413L485.376 207.465L491.673 212.4ZM472.713 226.8L475.989 234.098L476.023 234.083L476.056 234.068L472.713 226.8ZM418.712 232.08V224.08H410.713V232.08H418.712ZM418.712 288V296H426.712V288H418.712ZM383.913 288H375.913V296H383.913V288ZM383.913 111.36V103.36H375.913V111.36H383.913ZM456.633 195.6L460.21 202.755L460.338 202.692L460.463 202.623L456.633 195.6ZM464.793 188.64L458.307 183.956L458.282 183.991L458.257 184.027L464.793 188.64ZM469.113 179.76L461.484 177.351L461.425 177.536L461.376 177.724L469.113 179.76ZM469.592 164.88L461.69 166.128L461.729 166.373L461.783 166.615L469.592 164.88ZM466.233 155.76L459.309 159.768L459.309 159.768L466.233 155.76ZM458.073 148.08L454.003 154.967L454.069 155.007L454.136 155.045L458.073 148.08ZM418.712 144.96V136.96H410.713V144.96H418.712ZM418.712 198.24H410.713V206.24H418.712V198.24ZM437.432 119.36C451.117 119.36 462.155 121.694 470.86 125.978L477.925 111.622C466.47 105.986 452.868 103.36 437.432 103.36V119.36ZM470.953 126.023C479.704 130.19 486.131 136.018 490.54 143.502L504.325 135.378C498.174 124.942 489.241 117.01 477.832 111.577L470.953 126.023ZM490.573 143.556C494.979 150.9 497.353 159.9 497.353 170.88H513.353C513.353 157.54 510.446 145.58 504.292 135.324L490.573 143.556ZM497.353 170.88C497.353 177.238 496.365 183.734 494.339 190.391L509.646 195.049C512.1 186.986 513.353 178.922 513.353 170.88H497.353ZM494.307 190.5C492.529 196.654 489.596 202.259 485.458 207.362L497.887 217.438C503.349 210.701 507.296 203.186 509.678 194.94L494.307 190.5ZM485.376 207.465C481.645 212.226 476.411 216.293 469.369 219.532L476.056 234.068C485.014 229.947 492.42 224.414 497.969 217.335L485.376 207.465ZM469.436 219.502C462.914 222.43 454.427 224.08 443.673 224.08V240.08C455.958 240.08 466.831 238.21 475.989 234.098L469.436 219.502ZM443.673 224.08H418.712V240.08H443.673V224.08ZM410.713 232.08V288H426.712V232.08H410.713ZM418.712 280H383.913V296H418.712V280ZM391.913 288V111.36H375.913V288H391.913ZM383.913 119.36H437.432V103.36H383.913V119.36ZM443.432 206.24C449.55 206.24 455.267 205.227 460.21 202.755L453.055 188.445C450.958 189.493 447.875 190.24 443.432 190.24V206.24ZM460.463 202.623C464.841 200.236 468.573 197.157 471.328 193.253L458.257 184.027C457.172 185.563 455.464 187.124 452.802 188.577L460.463 202.623ZM471.278 193.324C473.86 189.749 475.768 185.904 476.849 181.796L461.376 177.724C460.857 179.696 459.885 181.771 458.307 183.956L471.278 193.324ZM476.741 182.169C477.852 178.651 478.553 175.162 478.553 171.84H462.553C462.553 172.998 462.293 174.789 461.484 177.351L476.741 182.169ZM478.553 171.84C478.553 169.236 478.096 166.267 477.402 163.145L461.783 166.615C462.369 169.253 462.553 170.924 462.553 171.84H478.553ZM477.495 163.632C476.841 159.492 475.34 155.525 473.156 151.752L459.309 159.768C460.645 162.075 461.384 164.188 461.69 166.128L477.495 163.632ZM473.156 151.752C470.549 147.248 466.677 143.754 462.009 141.115L454.136 155.045C456.828 156.566 458.396 158.191 459.309 159.768L473.156 151.752ZM462.142 141.193C456.931 138.113 450.535 136.96 443.673 136.96V152.96C448.97 152.96 452.174 153.887 454.003 154.967L462.142 141.193ZM443.673 136.96H418.712V152.96H443.673V136.96ZM410.713 144.96V198.24H426.712V144.96H410.713ZM418.712 206.24H443.432V190.24H418.712V206.24Z" fill="white" mask="url(#path-2-outside-1_107_3)"/>
<path d="M19.584 401.864C16.224 401.864 13.152 401.24 10.368 399.992C7.584 398.696 5.136 396.968 3.024 394.808L6.408 390.92C8.088 392.696 10.08 394.088 12.384 395.096C14.736 396.104 17.16 396.608 19.656 396.608C22.776 396.608 25.2 395.912 26.928 394.52C28.656 393.08 29.52 391.208 29.52 388.904C29.52 387.272 29.16 385.976 28.44 385.016C27.768 384.056 26.832 383.24 25.632 382.568C24.48 381.896 23.16 381.224 21.672 380.552L14.904 377.6C13.368 376.928 11.856 376.088 10.368 375.08C8.928 374.072 7.728 372.8 6.768 371.264C5.808 369.68 5.328 367.736 5.328 365.432C5.328 363.032 5.952 360.896 7.2 359.024C8.496 357.104 10.248 355.616 12.456 354.56C14.712 353.456 17.28 352.904 20.16 352.904C23.04 352.904 25.68 353.432 28.08 354.488C30.48 355.544 32.496 356.912 34.128 358.592L30.888 362.48C29.4 361.184 27.768 360.152 25.992 359.384C24.216 358.568 22.272 358.16 20.16 358.16C17.52 358.16 15.384 358.784 13.752 360.032C12.168 361.28 11.376 362.96 11.376 365.072C11.376 366.56 11.76 367.784 12.528 368.744C13.296 369.704 14.28 370.496 15.48 371.12C16.728 371.744 17.976 372.344 19.224 372.92L25.92 375.8C27.792 376.616 29.448 377.552 30.888 378.608C32.376 379.664 33.528 380.984 34.344 382.568C35.208 384.152 35.64 386.096 35.64 388.4C35.64 390.896 34.992 393.176 33.696 395.24C32.448 397.256 30.6 398.864 28.152 400.064C25.752 401.264 22.896 401.864 19.584 401.864ZM44.3649 401V366.008H50.2689V401H44.3649ZM47.3169 358.808C46.1649 358.808 45.2049 358.448 44.4369 357.728C43.7169 357.008 43.3569 356.072 43.3569 354.92C43.3569 353.768 43.7169 352.832 44.4369 352.112C45.2049 351.392 46.1649 351.032 47.3169 351.032C48.4689 351.032 49.4049 351.392 50.1249 352.112C50.8929 352.832 51.2769 353.768 51.2769 354.92C51.2769 356.072 50.8929 357.008 50.1249 357.728C49.4049 358.448 48.4689 358.808 47.3169 358.808ZM71.2277 401.864C68.6837 401.864 66.2597 401.432 63.9557 400.568C61.6997 399.656 59.7797 398.408 58.1957 396.824L60.9317 393.368C62.4677 394.616 64.0517 395.576 65.6837 396.248C67.3637 396.92 69.2837 397.256 71.4437 397.256C73.7477 397.256 75.4757 396.728 76.6277 395.672C77.7797 394.568 78.3557 393.272 78.3557 391.784C78.3557 390.584 77.9477 389.6 77.1317 388.832C76.3637 388.016 75.3797 387.344 74.1797 386.816C73.0277 386.24 71.7797 385.712 70.4357 385.232C68.7077 384.608 67.0517 383.888 65.4677 383.072C63.8837 382.208 62.5877 381.152 61.5797 379.904C60.6197 378.608 60.1397 377 60.1397 375.08C60.1397 372.248 61.1957 369.896 63.3077 368.024C65.4677 366.104 68.4437 365.144 72.2357 365.144C74.3957 365.144 76.4117 365.528 78.2837 366.296C80.1557 367.016 81.7637 367.952 83.1077 369.104L80.3717 372.488C79.1237 371.624 77.8517 370.952 76.5557 370.472C75.2597 369.992 73.8197 369.752 72.2357 369.752C70.0277 369.752 68.3957 370.256 67.3397 371.264C66.3317 372.272 65.8277 373.448 65.8277 374.792C65.8277 375.848 66.1397 376.736 66.7637 377.456C67.3877 378.128 68.2517 378.728 69.3557 379.256C70.5077 379.784 71.8037 380.288 73.2437 380.768C75.0677 381.44 76.7957 382.208 78.4277 383.072C80.1077 383.888 81.4517 384.968 82.4597 386.312C83.5157 387.608 84.0437 389.312 84.0437 391.424C84.0437 393.344 83.5397 395.096 82.5317 396.68C81.5717 398.216 80.1317 399.464 78.2117 400.424C76.3397 401.384 74.0117 401.864 71.2277 401.864ZM101.858 401.648C98.1615 401.648 95.5695 400.568 94.0815 398.408C92.5935 396.248 91.8495 393.44 91.8495 389.984V370.832H86.6655V366.368L92.1375 366.008L92.8575 354.776H97.8255V366.008H107.33V370.832H97.8255V390.056C97.8255 392.168 98.2095 393.824 98.9775 395.024C99.7935 396.224 101.21 396.824 103.226 396.824C103.85 396.824 104.498 396.776 105.17 396.68C105.842 396.536 106.514 396.296 107.186 395.96L108.482 400.136C107.57 400.568 106.538 400.928 105.386 401.216C104.234 401.504 103.058 401.648 101.858 401.648ZM128.369 401.864C125.249 401.864 122.393 401.144 119.801 399.704C117.257 398.216 115.241 396.128 113.753 393.44C112.265 390.704 111.521 387.392 111.521 383.504C111.521 379.712 112.289 376.448 113.825 373.712C115.361 370.976 117.329 368.864 119.729 367.376C122.129 365.888 124.673 365.144 127.361 365.144C130.337 365.144 132.857 365.84 134.921 367.232C137.033 368.576 138.617 370.472 139.673 372.92C140.729 375.368 141.257 378.248 141.257 381.56C141.257 382.184 141.233 382.784 141.185 383.36C141.185 383.936 141.113 384.512 140.969 385.088H115.769V380.408H135.929C135.929 377.048 135.185 374.48 133.697 372.704C132.257 370.88 130.169 369.968 127.433 369.968C125.849 369.968 124.289 370.424 122.753 371.336C121.217 372.2 119.945 373.616 118.937 375.584C117.977 377.552 117.497 380.168 117.497 383.432C117.497 386.408 118.001 388.904 119.009 390.92C120.065 392.936 121.481 394.472 123.257 395.528C125.033 396.536 126.977 397.04 129.089 397.04C130.769 397.04 132.329 396.8 133.769 396.32C135.257 395.84 136.601 395.192 137.801 394.376L139.961 398.264C138.425 399.32 136.697 400.184 134.777 400.856C132.905 401.528 130.769 401.864 128.369 401.864ZM149.904 401V366.008H154.8L155.304 371.048H155.52C157.056 369.416 158.712 368.024 160.488 366.872C162.312 365.72 164.28 365.144 166.392 365.144C169.08 365.144 171.168 365.744 172.656 366.944C174.192 368.144 175.32 369.776 176.04 371.84C177.864 369.824 179.712 368.216 181.584 367.016C183.456 365.768 185.448 365.144 187.56 365.144C191.208 365.144 193.896 366.32 195.624 368.672C197.352 370.976 198.216 374.36 198.216 378.824V401H192.312V379.616C192.312 376.304 191.784 373.928 190.728 372.488C189.672 371 188.04 370.256 185.832 370.256C184.44 370.256 183.024 370.712 181.584 371.624C180.192 372.488 178.68 373.832 177.048 375.656V401H171.144V379.616C171.144 376.304 170.616 373.928 169.56 372.488C168.504 371 166.848 370.256 164.592 370.256C161.952 370.256 159.024 372.056 155.808 375.656V401H149.904ZM224.589 401V353.768H230.565V401H224.589ZM242.927 401V366.008H247.823L248.327 371.048H248.543C250.223 369.368 251.999 367.976 253.871 366.872C255.743 365.72 257.879 365.144 260.279 365.144C263.975 365.144 266.663 366.32 268.343 368.672C270.071 370.976 270.935 374.36 270.935 378.824V401H265.031V379.616C265.031 376.304 264.503 373.928 263.447 372.488C262.439 371 260.759 370.256 258.407 370.256C256.631 370.256 255.023 370.712 253.583 371.624C252.191 372.536 250.607 373.88 248.831 375.656V401H242.927ZM283.31 401V360.464C283.31 358.112 283.67 356.072 284.39 354.344C285.11 352.568 286.214 351.224 287.702 350.312C289.238 349.352 291.182 348.872 293.534 348.872C294.59 348.872 295.622 348.992 296.63 349.232C297.686 349.424 298.598 349.688 299.366 350.024L298.07 354.344C296.678 353.912 295.358 353.696 294.11 353.696C292.478 353.696 291.254 354.272 290.438 355.424C289.622 356.528 289.214 358.208 289.214 360.464V401H283.31ZM278.126 370.832V366.368L283.598 366.008H296.63V370.832H278.126ZM316.231 401.864C313.399 401.864 310.735 401.144 308.239 399.704C305.791 398.264 303.799 396.176 302.263 393.44C300.775 390.704 300.031 387.416 300.031 383.576C300.031 379.64 300.775 376.304 302.263 373.568C303.799 370.832 305.791 368.744 308.239 367.304C310.735 365.864 313.399 365.144 316.231 365.144C319.111 365.144 321.775 365.864 324.223 367.304C326.671 368.744 328.639 370.832 330.127 373.568C331.663 376.304 332.431 379.64 332.431 383.576C332.431 387.416 331.663 390.704 330.127 393.44C328.639 396.176 326.671 398.264 324.223 399.704C321.775 401.144 319.111 401.864 316.231 401.864ZM316.231 396.968C318.247 396.968 320.023 396.416 321.559 395.312C323.095 394.16 324.271 392.576 325.087 390.56C325.903 388.544 326.311 386.216 326.311 383.576C326.311 380.888 325.903 378.536 325.087 376.52C324.271 374.456 323.095 372.872 321.559 371.768C320.023 370.616 318.247 370.04 316.231 370.04C314.215 370.04 312.439 370.616 310.903 371.768C309.415 372.872 308.239 374.456 307.375 376.52C306.559 378.536 306.151 380.888 306.151 383.576C306.151 386.216 306.559 388.544 307.375 390.56C308.239 392.576 309.415 394.16 310.903 395.312C312.439 396.416 314.215 396.968 316.231 396.968ZM341.646 401V366.008H346.542L347.046 372.344H347.262C348.414 370.136 349.854 368.384 351.582 367.088C353.31 365.792 355.182 365.144 357.198 365.144C357.966 365.144 358.638 365.192 359.214 365.288C359.79 365.384 360.366 365.576 360.942 365.864L359.646 370.904C359.118 370.76 358.614 370.664 358.134 370.616C357.702 370.52 357.126 370.472 356.406 370.472C354.918 370.472 353.358 371.072 351.726 372.272C350.142 373.472 348.75 375.56 347.55 378.536V401H341.646ZM366.607 401V366.008H371.503L372.007 371.048H372.223C373.759 369.416 375.415 368.024 377.191 366.872C379.015 365.72 380.983 365.144 383.095 365.144C385.783 365.144 387.871 365.744 389.359 366.944C390.895 368.144 392.023 369.776 392.743 371.84C394.567 369.824 396.415 368.216 398.287 367.016C400.159 365.768 402.151 365.144 404.263 365.144C407.911 365.144 410.599 366.32 412.327 368.672C414.055 370.976 414.919 374.36 414.919 378.824V401H409.015V379.616C409.015 376.304 408.487 373.928 407.431 372.488C406.375 371 404.743 370.256 402.535 370.256C401.143 370.256 399.727 370.712 398.287 371.624C396.895 372.488 395.383 373.832 393.751 375.656V401H387.847V379.616C387.847 376.304 387.319 373.928 386.263 372.488C385.207 371 383.551 370.256 381.295 370.256C378.655 370.256 375.727 372.056 372.511 375.656V401H366.607ZM434.366 401.864C432.446 401.864 430.694 401.48 429.11 400.712C427.574 399.896 426.35 398.768 425.438 397.328C424.526 395.84 424.07 394.04 424.07 391.928C424.07 387.992 425.798 385.016 429.254 383C432.71 380.984 438.182 379.568 445.67 378.752C445.622 377.312 445.382 375.92 444.95 374.576C444.566 373.232 443.846 372.152 442.79 371.336C441.734 370.52 440.27 370.112 438.398 370.112C436.382 370.112 434.486 370.496 432.71 371.264C430.934 371.984 429.35 372.8 427.958 373.712L425.654 369.68C426.71 368.96 427.958 368.264 429.398 367.592C430.838 366.872 432.398 366.296 434.078 365.864C435.758 365.384 437.534 365.144 439.406 365.144C442.238 365.144 444.542 365.744 446.318 366.944C448.142 368.096 449.462 369.752 450.278 371.912C451.142 374.072 451.574 376.616 451.574 379.544V401H446.678L446.174 396.824H445.958C444.278 398.216 442.478 399.416 440.558 400.424C438.638 401.384 436.574 401.864 434.366 401.864ZM436.022 396.968C437.75 396.968 439.358 396.584 440.846 395.816C442.382 395.048 443.99 393.92 445.67 392.432V383C441.734 383.48 438.614 384.104 436.31 384.872C434.054 385.592 432.422 386.504 431.414 387.608C430.406 388.712 429.902 390.032 429.902 391.568C429.902 393.488 430.502 394.88 431.702 395.744C432.902 396.56 434.342 396.968 436.022 396.968ZM471.728 401.864C469.184 401.864 466.76 401.432 464.456 400.568C462.2 399.656 460.28 398.408 458.696 396.824L461.432 393.368C462.968 394.616 464.552 395.576 466.184 396.248C467.864 396.92 469.784 397.256 471.944 397.256C474.248 397.256 475.976 396.728 477.128 395.672C478.28 394.568 478.856 393.272 478.856 391.784C478.856 390.584 478.448 389.6 477.632 388.832C476.864 388.016 475.88 387.344 474.68 386.816C473.528 386.24 472.28 385.712 470.936 385.232C469.208 384.608 467.552 383.888 465.968 383.072C464.384 382.208 463.088 381.152 462.08 379.904C461.12 378.608 460.64 377 460.64 375.08C460.64 372.248 461.696 369.896 463.808 368.024C465.968 366.104 468.944 365.144 472.736 365.144C474.896 365.144 476.912 365.528 478.784 366.296C480.656 367.016 482.264 367.952 483.608 369.104L480.872 372.488C479.624 371.624 478.352 370.952 477.056 370.472C475.76 369.992 474.32 369.752 472.736 369.752C470.528 369.752 468.896 370.256 467.84 371.264C466.832 372.272 466.328 373.448 466.328 374.792C466.328 375.848 466.64 376.736 467.264 377.456C467.888 378.128 468.752 378.728 469.856 379.256C471.008 379.784 472.304 380.288 473.744 380.768C475.568 381.44 477.296 382.208 478.928 383.072C480.608 383.888 481.952 384.968 482.96 386.312C484.016 387.608 484.544 389.312 484.544 391.424C484.544 393.344 484.04 395.096 483.032 396.68C482.072 398.216 480.632 399.464 478.712 400.424C476.84 401.384 474.512 401.864 471.728 401.864ZM492.748 401V366.008H498.652V401H492.748ZM495.7 358.808C494.548 358.808 493.588 358.448 492.82 357.728C492.1 357.008 491.74 356.072 491.74 354.92C491.74 353.768 492.1 352.832 492.82 352.112C493.588 351.392 494.548 351.032 495.7 351.032C496.852 351.032 497.788 351.392 498.508 352.112C499.276 352.832 499.66 353.768 499.66 354.92C499.66 356.072 499.276 357.008 498.508 357.728C497.788 358.448 496.852 358.808 495.7 358.808ZM525.457 401V353.768H538.921C542.473 353.768 545.569 354.224 548.209 355.136C550.849 356 552.913 357.44 554.401 359.456C555.889 361.472 556.633 364.208 556.633 367.664C556.633 370.976 555.889 373.712 554.401 375.872C552.961 377.984 550.921 379.592 548.281 380.696C545.689 381.752 542.665 382.28 539.209 382.28H531.433V401H525.457ZM531.433 377.384H538.489C542.617 377.384 545.665 376.592 547.633 375.008C549.649 373.424 550.657 370.976 550.657 367.664C550.657 364.256 549.601 361.904 547.489 360.608C545.425 359.264 542.329 358.592 538.201 358.592H531.433V377.384ZM575.886 401.864C572.19 401.864 569.478 400.712 567.75 398.408C566.07 396.056 565.23 392.648 565.23 388.184V366.008H571.134V387.392C571.134 390.656 571.638 393.032 572.646 394.52C573.702 395.96 575.382 396.68 577.686 396.68C579.462 396.68 581.046 396.224 582.438 395.312C583.878 394.352 585.438 392.864 587.118 390.848V366.008H593.022V401H588.126L587.622 395.528H587.406C585.822 397.448 584.094 398.984 582.222 400.136C580.398 401.288 578.286 401.864 575.886 401.864ZM620.306 401.864C618.674 401.864 616.994 401.48 615.266 400.712C613.538 399.896 611.882 398.792 610.298 397.4H610.082L609.578 401H604.826V349.736H610.73V363.704L610.586 370.04C612.17 368.648 613.898 367.496 615.77 366.584C617.69 365.624 619.61 365.144 621.53 365.144C624.554 365.144 627.098 365.888 629.162 367.376C631.226 368.816 632.786 370.88 633.842 373.568C634.898 376.208 635.426 379.328 635.426 382.928C635.426 386.912 634.706 390.32 633.266 393.152C631.874 395.984 630.026 398.144 627.722 399.632C625.418 401.12 622.946 401.864 620.306 401.864ZM619.298 396.896C621.218 396.896 622.922 396.344 624.41 395.24C625.946 394.136 627.146 392.552 628.01 390.488C628.874 388.376 629.306 385.88 629.306 383C629.306 380.456 628.994 378.224 628.37 376.304C627.746 374.336 626.762 372.824 625.418 371.768C624.074 370.664 622.298 370.112 620.09 370.112C618.65 370.112 617.138 370.52 615.554 371.336C614.018 372.104 612.41 373.28 610.73 374.864V393.224C612.266 394.568 613.778 395.528 615.266 396.104C616.802 396.632 618.146 396.896 619.298 396.896ZM650.887 401.648C649.399 401.648 648.199 401.36 647.287 400.784C646.375 400.16 645.703 399.272 645.271 398.12C644.839 396.92 644.623 395.48 644.623 393.8V349.736H650.527V394.232C650.527 395.192 650.695 395.864 651.031 396.248C651.367 396.584 651.775 396.752 652.255 396.752C652.447 396.752 652.615 396.752 652.759 396.752C652.951 396.704 653.191 396.656 653.479 396.608L654.343 401.072C653.911 401.216 653.407 401.336 652.831 401.432C652.303 401.576 651.655 401.648 650.887 401.648ZM662.974 401V366.008H668.878V401H662.974ZM665.926 358.808C664.774 358.808 663.814 358.448 663.046 357.728C662.326 357.008 661.966 356.072 661.966 354.92C661.966 353.768 662.326 352.832 663.046 352.112C663.814 351.392 664.774 351.032 665.926 351.032C667.078 351.032 668.014 351.392 668.734 352.112C669.502 352.832 669.886 353.768 669.886 354.92C669.886 356.072 669.502 357.008 668.734 357.728C668.014 358.448 667.078 358.808 665.926 358.808ZM680.693 401V349.736H686.597V384.368H686.741L701.573 366.008H708.197L696.533 380.12L709.781 401H703.301L693.077 384.152L686.597 391.784V401H680.693ZM723.702 401.864C721.782 401.864 720.03 401.48 718.446 400.712C716.91 399.896 715.686 398.768 714.774 397.328C713.862 395.84 713.406 394.04 713.406 391.928C713.406 387.992 715.134 385.016 718.59 383C722.046 380.984 727.518 379.568 735.006 378.752C734.958 377.312 734.718 375.92 734.286 374.576C733.902 373.232 733.182 372.152 732.126 371.336C731.07 370.52 729.606 370.112 727.734 370.112C725.718 370.112 723.822 370.496 722.046 371.264C720.27 371.984 718.686 372.8 717.294 373.712L714.99 369.68C716.046 368.96 717.294 368.264 718.734 367.592C720.174 366.872 721.734 366.296 723.414 365.864C725.094 365.384 726.87 365.144 728.742 365.144C731.574 365.144 733.878 365.744 735.654 366.944C737.478 368.096 738.798 369.752 739.614 371.912C740.478 374.072 740.91 376.616 740.91 379.544V401H736.014L735.51 396.824H735.294C733.614 398.216 731.814 399.416 729.894 400.424C727.974 401.384 725.91 401.864 723.702 401.864ZM725.358 396.968C727.086 396.968 728.694 396.584 730.182 395.816C731.718 395.048 733.326 393.92 735.006 392.432V383C731.07 383.48 727.95 384.104 725.646 384.872C723.39 385.592 721.758 386.504 720.75 387.608C719.742 388.712 719.238 390.032 719.238 391.568C719.238 393.488 719.838 394.88 721.038 395.744C722.238 396.56 723.678 396.968 725.358 396.968ZM761.064 401.864C758.52 401.864 756.096 401.432 753.792 400.568C751.536 399.656 749.616 398.408 748.032 396.824L750.768 393.368C752.304 394.616 753.888 395.576 755.52 396.248C757.2 396.92 759.12 397.256 761.28 397.256C763.584 397.256 765.312 396.728 766.464 395.672C767.616 394.568 768.192 393.272 768.192 391.784C768.192 390.584 767.784 389.6 766.968 388.832C766.2 388.016 765.216 387.344 764.016 386.816C762.864 386.24 761.616 385.712 760.272 385.232C758.544 384.608 756.888 383.888 755.304 383.072C753.72 382.208 752.424 381.152 751.416 379.904C750.456 378.608 749.976 377 749.976 375.08C749.976 372.248 751.032 369.896 753.144 368.024C755.304 366.104 758.28 365.144 762.072 365.144C764.232 365.144 766.248 365.528 768.12 366.296C769.992 367.016 771.6 367.952 772.944 369.104L770.208 372.488C768.96 371.624 767.688 370.952 766.392 370.472C765.096 369.992 763.656 369.752 762.072 369.752C759.864 369.752 758.232 370.256 757.176 371.264C756.168 372.272 755.664 373.448 755.664 374.792C755.664 375.848 755.976 376.736 756.6 377.456C757.224 378.128 758.088 378.728 759.192 379.256C760.344 379.784 761.64 380.288 763.08 380.768C764.904 381.44 766.632 382.208 768.264 383.072C769.944 383.888 771.288 384.968 772.296 386.312C773.352 387.608 773.88 389.312 773.88 391.424C773.88 393.344 773.376 395.096 772.368 396.68C771.408 398.216 769.968 399.464 768.048 400.424C766.176 401.384 763.848 401.864 761.064 401.864ZM782.084 401V366.008H787.988V401H782.084ZM785.036 358.808C783.884 358.808 782.924 358.448 782.156 357.728C781.436 357.008 781.076 356.072 781.076 354.92C781.076 353.768 781.436 352.832 782.156 352.112C782.924 351.392 783.884 351.032 785.036 351.032C786.188 351.032 787.124 351.392 787.844 352.112C788.612 352.832 788.996 353.768 788.996 354.92C788.996 356.072 788.612 357.008 787.844 357.728C787.124 358.448 786.188 358.808 785.036 358.808Z" fill="black"/>
<defs>
<linearGradient id="paint0_linear_107_3" x1="481.421" y1="303.158" x2="481.421" y2="-1.35522e-06" gradientUnits="userSpaceOnUse">
<stop stop-color="#D9D9D9"/>
<stop offset="0.171812" stop-color="#BBCCDC"/>
<stop offset="0.992047" stop-color="#2C8FEA"/>
</linearGradient>
</defs>
</svg>
